<svg xmlns="http://www.w3.org/2000/svg" width="757.893" height="501.435"><g data-name="Group 203"><g transform="translate(0 -8.203)"><path data-name="Path 2161" d="M696.954 509.638H22.611A22.611 22.611 0 010 487.027q366.674-42.615 719.565 0a22.611 22.611 0 01-22.611 22.611z" fill="#2f2e41"/><path data-name="Path 2162" d="M719.565 488.357L0 487.027l83.395-140.318.4-.665V36.786a28.581 28.581 0 0128.586-28.583h490.816a28.581 28.581 0 0128.583 28.586v311.379z" fill="#3f3d56"/><path data-name="Path 2163" d="M111.726 28.155a9.321 9.321 0 00-9.31 9.31v281.974a9.321 9.321 0 009.31 9.31H607.84a9.322 9.322 0 009.31-9.31V37.465a9.321 9.321 0 00-9.31-9.31z" fill="#fff"/><path data-name="Path 2164" d="M114.986 365.991a4 4 0 00-3.625 2.322l-25.7 55.863a3.99 3.99 0 003.625 5.658h540.389a3.99 3.99 0 003.568-5.775l-27.931-55.863a3.97 3.97 0 00-3.568-2.206z" fill="#2f2e41"/><circle data-name="Ellipse 5" cx="5.985" cy="5.985" r="5.985" transform="translate(351.803 11.529)" fill="#fff"/><path data-name="Path 2165" d="M304.672 440.475a4 4 0 00-3.853 2.952l-6.446 23.941a3.99 3.99 0 003.852 5.028H420.81a3.989 3.989 0 003.769-5.3l-8.287-23.937a3.993 3.993 0 00-3.771-2.685z" fill="#2f2e41"/><path data-name="Path 2166" d="M631.781 341.385v5.32H83.395l.413-.665v-4.656z" fill="#2f2e41"/><path data-name="Path 2170" d="M208.466 109.582l-4.1-5.27 2.384-1.854 1.941 2.5 6.556-6.921 2.193 2.078z" fill="#fff"/><path data-name="Path 2171" d="M208.466 191.114l-4.1-5.27 2.384-1.854 1.941 2.5 6.556-6.921 2.194 2.077z" fill="#fff"/><path data-name="Path 2172" d="M208.466 272.647l-4.1-5.27 2.384-1.854 1.941 2.5 6.556-6.921 2.193 2.077z" fill="#fff"/><path data-name="Rectangle 30" fill="#fff" d="M513.451 100.452l1.171-1.171 7.868 7.868-1.171 1.171z"/><path data-name="Rectangle 31" fill="#fff" d="M513.866 107.149l7.868-7.868 1.17 1.171-7.867 7.868z"/><path data-name="Rectangle 32" fill="#fff" d="M513.452 181.985l1.171-1.171 7.868 7.868-1.171 1.171z"/><path data-name="Rectangle 33" fill="#fff" d="M513.866 188.681l7.868-7.868 1.17 1.171-7.867 7.868z"/><path data-name="Rectangle 34" fill="#fff" d="M513.452 263.517l1.171-1.171 7.868 7.868-1.171 1.171z"/><path data-name="Rectangle 35" fill="#fff" d="M513.866 270.213l7.868-7.868 1.17 1.171-7.867 7.868z"/><path data-name="Path 2185" d="M564.094 353.572a.973.973 0 00-.938.719l-1.57 5.83a.972.972 0 00.938 1.224h29.851a.972.972 0 00.918-1.29l-2.018-5.83a.972.972 0 00-.918-.654z" fill="#6c63ff"/><path data-name="Path 2186" d="M520.508 353.572a.973.973 0 00-.938.719l-1.57 5.83a.972.972 0 00.938 1.224h29.851a.972.972 0 00.918-1.29l-2.018-5.83a.972.972 0 00-.918-.654z" fill="#6c63ff"/></g><g data-name="Group 197"><path data-name="Path 2216" d="M629.176 106.739H338.209a5.4 5.4 0 01-5.388-5.388V29.174a5.394 5.394 0 015.388-5.388h290.967a5.4 5.4 0 015.388 5.388v72.176a5.4 5.4 0 01-5.388 5.389zM339.49 27.202c2.135 4.438-4.512.188-4.514 1.972v72.176c0 1.785-2.27-73.588-.485-73.586l294.685 76.819c1.785 0 1.053 2.3 1.055.514l-293.522-.514c0-1.785-.464-77.887-2.249-77.889z" fill="#588df8"/><path data-name="Path 2222" d="M375.927 42.631a22.631 22.631 0 11-22.631 22.631 22.631 22.631 0 0122.631-22.631z" fill="#3f3d56"/><path data-name="Path 2217" d="M428.194 50.174a3.772 3.772 0 100 7.544h95.911a3.772 3.772 0 100-7.544z" fill="#fff"/><path data-name="Path 2218" d="M428.194 72.805a3.772 3.772 0 100 7.544h177.813a3.772 3.772 0 100-7.544z" fill="#fff"/></g><g data-name="Group 201" transform="translate(-403.383 147.301)"><path data-name="Path 2216" d="M1154.769 143.05H803.384a6.515 6.515 0 01-6.507-6.507V49.38a6.515 6.515 0 016.507-6.507h351.385a6.515 6.515 0 016.507 6.507v87.163a6.515 6.515 0 01-6.507 6.507zM804.931 46.998c2.578 5.359-5.449.226-5.451 2.382v87.163c0 2.155-2.741-88.869-.586-88.866l355.875 92.766c2.155 0 1.271 2.776 1.274.62l-354.47-.62c0-2.155-.56-94.06-2.716-94.062z" fill="#588df8"/><circle data-name="Ellipse 74" cx="27.33" cy="27.33" r="27.33" transform="translate(821.604 65.631)" fill="#3f3d56"/><path data-name="Path 2217" d="M912.053 74.741a4.555 4.555 0 100 9.11h115.827a4.555 4.555 0 000-9.11z" fill="#fff"/><path data-name="Path 2218" d="M912.053 102.071a4.555 4.555 0 100 9.11h214.735a4.555 4.555 0 100-9.11z" fill="#fff"/></g><g data-name="Group 199" transform="translate(-662.067 166.206)"><path data-name="Path 2216" d="M991.112 97.243h-190.7a3.536 3.536 0 01-3.531-3.532v-47.3a3.536 3.536 0 013.532-3.532h190.7a3.536 3.536 0 013.531 3.532v47.3a3.536 3.536 0 01-3.532 3.532zM801.248 45.112c1.4 2.908-2.957.123-2.959 1.293v47.3c0 1.17-1.488-48.231-.318-48.229l193.14 50.348c1.17 0 .69 1.506.691.337l-192.378-.337c0-1.17-.3-51.048-1.474-51.049z" fill="#588df8"/><circle data-name="Ellipse 74" cx="14.832" cy="14.832" r="14.832" transform="translate(810.297 55.224)" fill="#3f3d56"/><path data-name="Path 2217" d="M859.385 60.168a2.472 2.472 0 000 4.944h62.861a2.472 2.472 0 100-4.944z" fill="#fff"/><path data-name="Path 2218" d="M859.385 75.001a2.472 2.472 0 000 4.944h116.541a2.472 2.472 0 100-4.944z" fill="#fff"/></g><g data-name="Group 198" transform="translate(-673.435 -90.593)"><path data-name="Path 2219" d="M959.054 280.97H713.641a4.55 4.55 0 01-4.545-4.545v-60.88a4.55 4.55 0 014.545-4.545h245.413a4.55 4.55 0 014.545 4.545v60.876a4.55 4.55 0 01-4.545 4.545zm-245.413-68.152c-1.505 0 7.725.7 2.189 2.727l-4.916 60.876a2.73 2.73 0 002.727 2.727h245.413c1.505 0 2.39-.889 1.573.958l-249.713-.958c0-1.505 1.181-66.328-.324-66.33z" fill="#3f3d56"/><path data-name="Path 2220" d="M789.537 233.516a3.182 3.182 0 000 6.363h88.167a3.182 3.182 0 000-6.363z" fill="#e6e6e6"/><path data-name="Path 2221" d="M789.537 252.604a3.182 3.182 0 000 6.363h149.975a3.182 3.182 0 000-6.363z" fill="#e6e6e6"/><circle data-name="Ellipse 75" cx="19.088" cy="19.088" r="19.088" transform="translate(728.366 227)" fill="#6c63ff"/></g><g data-name="Group 200" transform="translate(-256.531 -77.276)"><path data-name="Path 2219" d="M813.886 240.332H711.001a1.908 1.908 0 01-1.905-1.905v-25.522a1.908 1.908 0 011.905-1.905h102.885a1.908 1.908 0 011.905 1.905v25.521a1.908 1.908 0 01-1.905 1.906zm-102.885-28.57c-.631 0 3.238.293.918 1.143l-2.061 25.521a1.144 1.144 0 001.143 1.143h102.885c.631 0 1-.373.659.4l-104.687-.4c0-.631.5-27.807-.136-27.807z" fill="#3f3d56"/><path data-name="Path 2220" d="M742.82 220.439a1.334 1.334 0 000 2.667h36.962a1.334 1.334 0 100-2.667z" fill="#e6e6e6"/><path data-name="Path 2221" d="M742.82 228.442a1.334 1.334 0 000 2.667h62.874a1.334 1.334 0 000-2.667z" fill="#e6e6e6"/><circle data-name="Ellipse 75" cx="8.002" cy="8.002" r="8.002" transform="translate(717.175 217.708)" fill="#6c63ff"/></g><g data-name="Group 202" transform="translate(-445.056 75.428)"><path data-name="Path 2219" d="M787.422 232.923h-76.9a1.426 1.426 0 01-1.424-1.424v-19.075a1.426 1.426 0 011.424-1.424h76.9a1.426 1.426 0 011.424 1.424v19.075a1.426 1.426 0 01-1.424 1.424zm-76.9-21.353c-.472 0 2.42.219.686.854l-1.54 19.075a.855.855 0 00.854.854h76.9c.472 0 .749-.279.493.3l-78.245-.3c0-.472.37-20.783-.1-20.784z" fill="#3f3d56"/><path data-name="Path 2220" d="M734.302 218.055a1 1 0 000 1.994h27.629a1 1 0 000-1.994z" fill="#e6e6e6"/><path data-name="Path 2221" d="M734.302 224.036a1 1 0 000 1.994h46.993a1 1 0 000-1.994z" fill="#e6e6e6"/><circle data-name="Ellipse 75" cx="5.981" cy="5.981" r="5.981" transform="translate(715.134 216.013)" fill="#6c63ff"/></g></g></svg>